<?xml version="1.0" encoding="UTF-8" standalone="no"?>
<!-- Created with Inkscape (http://www.inkscape.org/) -->

<svg
   width="210mm"
   height="297mm"
   viewBox="0 0 210 297"
   version="1.1"
   id="svg5"
   inkscape:version="1.1 (c68e22c387, 2021-05-23)"
   sodipodi:docname="nafnspjald.svg"
   xmlns:inkscape="http://www.inkscape.org/namespaces/inkscape"
   xmlns:sodipodi="http://sodipodi.sourceforge.net/DTD/sodipodi-0.dtd"
   xmlns="http://www.w3.org/2000/svg"
   xmlns:svg="http://www.w3.org/2000/svg">
  <sodipodi:namedview
     id="namedview7"
     pagecolor="#ffffff"
     bordercolor="#666666"
     borderopacity="1.0"
     inkscape:pageshadow="2"
     inkscape:pageopacity="0.0"
     inkscape:pagecheckerboard="0"
     inkscape:document-units="mm"
     showgrid="true"
     showborder="true"
     inkscape:zoom="1.8343509"
     inkscape:cx="385.69502"
     inkscape:cy="289.20312"
     inkscape:window-width="1920"
     inkscape:window-height="1001"
     inkscape:window-x="-9"
     inkscape:window-y="-9"
     inkscape:window-maximized="1"
     inkscape:current-layer="layer1"
     showguides="true"
     inkscape:guide-bbox="true">
    <inkscape:grid
       type="xygrid"
       id="grid824" />
    <sodipodi:guide
       position="109.80208,236.14584"
       orientation="1,0"
       id="guide964" />
    <sodipodi:guide
       position="88.635415,212.33334"
       orientation="0,-1"
       id="guide966" />
  </sodipodi:namedview>
  <defs
     id="defs2">
    <linearGradient
       id="linearGradient1534"
       inkscape:swatch="solid">
      <stop
         style="stop-color:#000000;stop-opacity:1;"
         offset="0"
         id="stop1532" />
    </linearGradient>
    <filter
       inkscape:collect="always"
       style="color-interpolation-filters:sRGB"
       id="filter1510"
       x="-0.26261601"
       y="-0.2673429"
       width="1.525232"
       height="1.5346858">
      <feGaussianBlur
         inkscape:collect="always"
         stdDeviation="12.094879"
         id="feGaussianBlur1512" />
    </filter>
    <filter
       inkscape:collect="always"
       style="color-interpolation-filters:sRGB"
       id="filter3630"
       x="-0.010564008"
       y="-0.011152866"
       width="1.021128"
       height="1.0223057">
      <feGaussianBlur
         inkscape:collect="always"
         stdDeviation="0.54410438"
         id="feGaussianBlur3632" />
    </filter>
    <filter
       inkscape:collect="always"
       style="color-interpolation-filters:sRGB"
       id="filter3925"
       x="-0.0074404108"
       y="-0.033816318"
       width="1.0148808"
       height="1.0676326">
      <feGaussianBlur
         inkscape:collect="always"
         stdDeviation="0.31364377"
         id="feGaussianBlur3927" />
    </filter>
    <filter
       inkscape:collect="always"
       style="color-interpolation-filters:sRGB"
       id="filter6504"
       x="-0.0013464548"
       y="-0.0012918243"
       width="1.0026929"
       height="1.0025836">
      <feGaussianBlur
         inkscape:collect="always"
         stdDeviation="0.31385613"
         id="feGaussianBlur6506" />
    </filter>
  </defs>
  <g
     inkscape:label="Layer 1"
     inkscape:groupmode="layer"
     id="layer1">
    <rect
       style="fill:#ff0000;fill-opacity:0;stroke:#000000;stroke-width:1.0095;stroke-miterlimit:4;stroke-dasharray:none"
       id="rect1017"
       width="83.990494"
       height="53.990505"
       x="66.138084"
       y="55.554752"
       rx="2.470309" />
    <g
       inkscape:label="Layer 1"
       id="layer1-8"
       transform="matrix(0.75745218,0,0,0.7433051,161.66958,18.147248)"
       inkscape:export-filename="C:\Users\4360s\Desktop\Do szkoly\layer1-8.png"
       inkscape:export-xdpi="96"
       inkscape:export-ydpi="96">
      <path
         style="color:#000000;opacity:0.755027;fill:#ff1300;-inkscape-stroke:none;filter:url(#filter6504)"
         d="m -393.26953,343.95898 c -0.0454,0.65404 -0.1566,1.25744 -0.90645,1.36956 -61.42053,28.27128 -122.84101,56.5427 -184.26152,84.81404 60.03623,31.68011 120.07426,63.35683 180.10938,95.03906 7.93925,67.41531 15.87752,134.83074 23.8164,202.24609 48.68005,-47.30888 97.3624,-94.61541 146.04102,-141.92578 66.56917,13.285 133.139401,26.5647 199.708981,39.84766 -29.949624,-60.91744 -59.901213,-121.83391 -89.849611,-182.75195 33.20141,-59.208 66.406538,-118.41391 99.609377,-177.6211 -67.190813,9.65911 -134.381167,19.32142 -201.572267,28.97852 -46.04945,-49.87313 -92.09755,-99.74749 -138.14648,-149.6211 -11.51628,66.54167 -23.03256,133.08334 -34.54883,199.625 z"
         id="path846"
         transform="matrix(0.08909847,0,0,0.08803947,-46.090618,49.469996)"
         inkscape:export-filename="C:\Users\4360s\Desktop\logo"
         inkscape:export-xdpi="96"
         inkscape:export-ydpi="96" />
      <path
         id="path950"
         style="opacity:1;fill:#eefe00;filter:url(#filter3630)"
         transform="matrix(0.36900746,0,0,0.36720323,-48.635275,52.544013)"
         d="M 3.5982552,95.584938 A 61.806587,58.54327 0 0 1 -56.735738,154.11159 61.806587,58.54327 0 0 1 -119.94475,98.373832 61.806587,58.54327 0 0 1 -62.622771,37.191182 61.806587,58.54327 0 0 1 3.317728,90.013483" />
      <path
         id="path1188"
         style="opacity:1;fill:#ff6900;filter:url(#filter1510)"
         transform="matrix(0.32793855,0,0,0.31150541,-103.31308,49.943627)"
         d="M 160.53437,123.28928 A 55.266453,54.289284 0 0 1 106.58469,177.56316 55.266453,54.289284 0 0 1 50.064215,125.87553 55.266453,54.289284 0 0 1 101.3206,69.13865 55.266453,54.289284 0 0 1 160.28353,118.12267" />
      <g
         aria-label="Szymon"
         transform="matrix(0.38378052,-0.12701688,0.11031573,0.42822816,-127.203,49.028754)"
         id="text4417"
         style="font-style:italic;font-weight:bold;font-size:26.9623px;line-height:1.25;font-family:'Comic Sans MS';-inkscape-font-specification:'Comic Sans MS, Bold Italic';font-variant-ligatures:none;opacity:1;fill:#00aa43;stroke:#ff0000;stroke-width:0.237902;filter:url(#filter3925)">
        <path
           d="m 71.61395,111.0005 q 0,0.17115 -0.0395,0.42128 -0.0395,0.25014 -0.118487,0.51345 -0.06583,0.25013 -0.171147,0.48711 -0.09216,0.22381 -0.210643,0.35546 -0.315965,0.38179 -1.132206,0.38179 0,-0.89523 -0.250139,-1.48767 -0.118486,-0.27647 -0.434451,-0.46078 -0.302799,-0.19748 -0.684589,-0.32913 -0.381791,-0.13165 -0.776746,-0.18431 -0.381791,-0.0658 -0.658259,-0.0658 -0.631929,0 -1.224363,0.0263 -0.579268,0.0263 -1.145371,0.11849 -0.552938,0.079 -1.132206,0.23697 -0.566103,0.14482 -1.184866,0.39496 -0.473947,0.19748 -0.987389,0.47395 -0.513443,0.2633 -0.947894,0.60559 -0.434451,0.3423 -0.750415,0.75042 -0.315965,0.40812 -0.394956,0.89523 -0.02633,0.36863 0.223808,0.84257 0.250139,0.47395 0.671425,0.92157 0.434451,0.44761 0.987389,0.81624 0.566103,0.36862 1.171701,0.53977 0.105322,0.0395 0.487112,0.17115 0.38179,0.13165 0.816242,0.27647 0.447616,0.14481 0.816241,0.27647 0.38179,0.11848 0.487112,0.14481 2.975332,0.76358 4.410337,1.8168 1.44817,1.04005 1.44817,2.55404 0,0.48712 -0.223808,0.97423 -0.210643,0.47395 -0.539772,0.92156 -0.32913,0.43445 -0.71092,0.80308 -0.381791,0.36862 -0.71092,0.61876 -0.381791,0.3028 -0.868903,0.63193 -0.487112,0.31596 -1.040049,0.61876 -0.552938,0.3028 -1.145371,0.56611 -0.592434,0.2633 -1.198032,0.46078 -0.592434,0.19748 -1.250693,0.35546 -0.645094,0.17115 -1.290188,0.28963 -0.631929,0.11849 -1.224362,0.18432 -0.579268,0.079 -1.04005,0.079 -0.342295,0 -0.895232,-0.10533 -0.539773,-0.0922 -1.06638,-0.27646 -0.526608,-0.17115 -0.908398,-0.42129 -0.368625,-0.23697 -0.368625,-0.51344 0,-0.17115 0.0395,-0.42129 0.05266,-0.25014 0.131652,-0.48711 0.09216,-0.23697 0.197478,-0.39496 0.118486,-0.17114 0.263303,-0.17114 0.263304,0 0.539773,0.0922 0.289634,0.079 0.671424,0.18432 0.394956,0.10532 0.921563,0.19747 0.539773,0.079 1.303354,0.079 0.789911,0 1.632483,-0.15798 0.855737,-0.17114 1.671978,-0.44761 0.816242,-0.27647 1.553492,-0.63193 0.750416,-0.35546 1.342849,-0.73725 0.276469,-0.18432 0.605599,-0.42129 0.342294,-0.25014 0.631928,-0.53977 0.289635,-0.28964 0.487112,-0.61877 0.197478,-0.32912 0.197478,-0.68458 0,-0.50028 -0.73725,-0.96106 -0.724085,-0.44762 -1.487666,-0.69776 -0.750416,-0.25014 -1.342849,-0.39495 -0.724085,-0.18432 -1.632483,-0.48712 -0.895233,-0.30279 -1.974778,-0.72408 -1.790465,-0.68459 -3.027992,-2.00111 -1.237528,-1.31652 -1.237528,-3.17281 -0.02633,-0.8689 0.526608,-1.67198 0.566102,-0.80307 1.513996,-1.48766 0.947893,-0.68459 2.15909,-1.2112 1.224362,-0.53977 2.514551,-0.84257 0.263303,-0.0527 0.631928,-0.11849 0.381791,-0.0658 0.776746,-0.10532 0.408121,-0.0527 0.776746,-0.079 0.381791,-0.0395 0.645094,-0.0395 0.315965,0 0.789912,0.0527 0.487111,0.0395 0.987388,0.11849 0.513443,0.079 0.961059,0.19748 0.460781,0.11849 0.73725,0.27647 0.671425,0.35546 1.053215,0.85573 0.38179,0.50028 0.38179,0.97423 z"
           style="font-style:normal;font-weight:normal;font-family:'Segoe Script';-inkscape-font-specification:'Segoe Script, Normal'"
           id="path1433" />
        <path
           d="m 88.096763,125.04775 q 0.315964,0 0.394955,0.22381 0.07899,0.21064 0.105322,0.47395 0.03949,0.30279 -0.32913,0.73725 -0.35546,0.43445 -0.934728,0.84257 -0.579268,0.40812 -1.290188,0.69775 -0.71092,0.28964 -1.369179,0.28964 -0.157983,0 -0.566103,-0.079 -0.394956,-0.0658 -0.921563,-0.17115 -0.526608,-0.0922 -1.119041,-0.22381 -0.592433,-0.11849 -1.158536,-0.21064 -0.552938,-0.10532 -1.01372,-0.17115 -0.460781,-0.079 -0.71092,-0.079 -0.645094,0 -1.06638,0.13165 -0.421286,0.11849 -0.76358,0.31596 -0.315965,0.17115 -0.566103,0.35546 -0.236974,0.18432 -0.473947,0.32913 -0.236973,0.15799 -0.487112,0.25014 -0.250138,0.10532 -0.566103,0.10532 -0.171147,0 -0.302799,-0.10532 -0.131652,-0.10532 -0.236973,-0.27647 -0.09216,-0.15798 -0.157983,-0.36862 -0.06583,-0.19748 -0.09216,-0.39496 0.724085,-0.8689 1.461336,-1.59298 0.73725,-0.73725 1.4745,-1.44817 0.737251,-0.71092 1.461336,-1.44817 0.73725,-0.73726 1.474501,-1.60616 0.882067,-1.04005 1.566657,-1.96161 0.697754,-0.92156 1.184866,-1.79047 -0.276469,-0.13165 -0.579268,-0.10532 -0.289634,0.0132 -0.71092,0.0527 -0.368625,0.0395 -0.618764,0.0527 -0.250138,0.0132 -0.500277,0.0263 -0.236973,0.0132 -0.513442,0.0395 -0.276469,0.0263 -0.684589,0.079 -0.460782,0.0658 -0.816242,0.10532 -0.342295,0.0263 -0.592433,0.0263 -2.883176,0 -2.883176,-1.51399 0,-0.42129 0.302799,-0.68459 0.3028,-0.27647 0.724086,-0.27647 0.118486,0 0.263303,0.0395 0.157983,0.0263 0.315965,0.079 0.171147,0.0395 0.315964,0.0922 0.144817,0.0527 0.236974,0.079 0.671424,0.18432 1.42184,0.18432 0.684589,0 1.44817,-0.079 0.763581,-0.0922 1.553492,-0.18431 0.789911,-0.10532 1.592987,-0.18431 0.803077,-0.0922 1.553492,-0.0922 0.210643,0 0.447616,0.0527 0.250139,0.0395 0.460782,0.14482 0.210643,0.10532 0.35546,0.27647 0.144817,0.17115 0.144817,0.42129 v 0.0527 q -0.38179,0.72408 -0.73725,1.29018 -0.35546,0.55294 -0.750416,1.07955 -0.38179,0.51344 -0.829407,1.04005 -0.434451,0.52661 -0.974223,1.18487 -0.434452,0.53977 -1.026885,1.15853 -0.579268,0.61877 -1.145371,1.23753 -0.566103,0.61876 -1.026884,1.18487 -0.447617,0.55293 -0.618764,0.96105 0.01317,0.0263 0.210643,0.0395 0.197478,0.0132 0.434451,0.0132 0.236973,0 0.460781,0 0.223809,0 0.289634,0 0.394956,0 0.908398,0.0658 0.513442,0.0658 1.132206,0.15798 0.618764,0.079 1.329684,0.14482 0.724085,0.0658 1.527161,0.0658 0.434452,0 0.829407,-0.17115 0.408121,-0.18431 0.73725,-0.39496 0.342295,-0.21064 0.605599,-0.38179 0.263304,-0.18431 0.408121,-0.18431 z"
           style="font-style:normal;font-weight:normal;font-family:'Segoe Script';-inkscape-font-specification:'Segoe Script, Normal'"
           id="path1435" />
        <path
           d="m 104.0793,115.96377 q 0,0.22381 -0.0132,0.52661 -0.0132,0.28963 -0.0395,0.67142 -0.0263,0.36863 -0.0658,0.76359 -0.0263,0.39495 -0.0658,0.81624 -0.0395,0.42128 -0.0658,0.75041 -0.0263,0.31597 -0.0395,0.53978 -0.0922,1.80363 -0.38179,3.71258 -0.28963,1.89578 -0.72408,3.62042 -0.69776,2.85685 -2.02744,4.88429 -1.342849,2.05377 -3.712583,2.05377 -1.553492,0 -3.133314,-0.61877 -1.566657,-0.6056 -2.646202,-1.69831 -0.645094,-0.76358 -0.645094,-1.05321 0,-0.32913 0.197478,-0.75042 0.210643,-0.40812 0.473946,-0.40812 0.144817,0 0.250139,0.15798 0.447616,0.63193 0.855737,1.00056 1.75097,1.55349 4.555154,1.55349 1.105876,0 1.935282,-1.05321 0.421286,-0.51345 0.737251,-1.10588 0.329129,-0.59243 0.579266,-1.23753 0.25014,-0.64509 0.44762,-1.31652 0.19748,-0.67142 0.35546,-1.36918 0.13165,-0.64509 0.19748,-1.02688 0.079,-0.38179 0.0921,-0.51344 0.0658,-0.55294 0.0922,-1.06638 0.0263,-0.51344 0.10532,-1.01372 -0.36863,0.17115 -1.513996,0.8689 -0.671425,0.40812 -1.224363,0.73725 -0.552937,0.32913 -0.987388,0.57927 -0.868903,0.51344 -1.961613,0.97422 -1.105876,0.46078 -1.816796,0.46078 -1.237527,0 -1.908951,-0.98738 -0.671425,-0.98739 -0.671425,-2.27758 0,-0.92156 0.197478,-2.05377 0.105321,-0.5661 0.210643,-1.05321 0.118486,-0.50028 0.250138,-0.93473 0.131652,-0.43445 0.3028,-1.04005 0.184312,-0.6056 0.434451,-1.39551 0.131652,-0.43445 0.289634,-0.75042 0.157982,-0.32913 0.35546,-0.53977 0.210643,-0.22381 0.487112,-0.32913 0.276469,-0.10532 0.671424,-0.10532 0.38179,0 0.605599,0.43445 0.210643,0.40812 0.210643,0.84257 0,0.26331 -0.118487,0.47395 -0.06583,0.10532 -0.184313,0.3028 -0.118486,0.19748 -0.302799,0.48711 -0.184313,0.28963 -0.289634,0.48711 -0.105322,0.18431 -0.131652,0.28964 -0.105321,0.31596 -0.184312,0.55293 -0.07899,0.23698 -0.144818,0.39496 -0.05266,0.15798 -0.118486,0.38179 -0.06583,0.21064 -0.157982,0.50028 -0.171148,0.5661 -0.250139,1.04005 -0.06583,0.46078 -0.06583,0.98738 0,0.52661 0.210643,1.27703 0.223808,0.77674 0.605599,0.77674 1.158536,0 2.804184,-0.67142 1.645648,-0.68459 2.975332,-1.7773 1.329684,-1.09271 1.606154,-2.19859 0.0527,-0.15798 0.079,-0.47394 0.0263,-0.31597 0.0395,-0.69776 0.0263,-0.39495 0.0395,-0.81624 0.0132,-0.42129 0.0263,-0.80308 0.0263,-0.39495 0.0527,-0.69775 0.0263,-0.31597 0.079,-0.47395 0.34229,-1.21119 1.10587,-1.21119 0.72409,0 0.89524,0.36862 0.18431,0.39496 0.18431,1.25069 z"
           style="font-style:normal;font-weight:normal;font-family:'Segoe Script';-inkscape-font-specification:'Segoe Script, Normal'"
           id="path1437" />
        <path
           d="m 137.15024,118.54415 q 0,0.11849 -0.0527,0.3028 -0.0395,0.18431 -0.11849,0.39495 -0.0658,0.21065 -0.17114,0.43446 -0.0922,0.21064 -0.21065,0.38179 -0.22381,0.34229 -0.59243,0.78991 -0.35546,0.44761 -0.78991,0.93472 -0.43445,0.47395 -0.93473,0.96106 -0.48711,0.47395 -0.96106,0.86891 -0.38179,0.31596 -0.88207,0.69775 -0.50027,0.38179 -1.05321,0.71092 -0.55294,0.32913 -1.13221,0.55294 -0.57926,0.21064 -1.09271,0.21064 -0.46078,0 -0.84257,-0.13165 -0.36862,-0.13165 -0.68459,-0.48711 -0.3028,-0.36863 -0.53977,-1.00056 -0.23697,-0.63193 -0.40812,-1.63248 -0.079,-0.42129 -0.14482,-0.89523 -0.0527,-0.48711 -0.11849,-0.96106 -0.0527,-0.47395 -0.10532,-0.9084 -0.0527,-0.44761 -0.13165,-0.77674 -0.0658,-0.3423 -0.15798,-0.53978 -0.079,-0.19747 -0.18431,-0.19747 -0.17115,0 -0.48712,0.28963 -0.30279,0.28963 -0.72408,0.84257 -0.40812,0.53977 -0.9084,1.30335 -0.48711,0.76359 -1.02688,1.71148 -1.06638,1.89579 -1.80363,2.88317 -0.73725,0.98739 -1.34285,0.98739 -0.9084,0 -1.22436,-0.85573 -0.28964,-0.86891 -0.35546,-2.90951 -0.0395,-1.98794 -0.28964,-3.05432 -0.23697,-1.07955 -0.61876,-1.07955 -0.23698,0 -0.69776,0.43445 -0.44761,0.42129 -1.02688,1.1717 -0.5661,0.75042 -1.23753,1.7773 -0.67142,1.01372 -1.34285,2.21176 -0.18431,0.31596 -0.42128,0.72408 -0.23698,0.40812 -0.48712,0.82941 -0.23697,0.40812 -0.47394,0.77674 -0.22381,0.36863 -0.39496,0.6056 -0.38179,0.55294 -0.92156,0.55294 -1.00055,0 -1.31652,-1.02688 -0.079,-0.26331 -0.13165,-0.42129 -0.0395,-0.17115 -0.0658,-0.32913 -0.0263,-0.17115 -0.0395,-0.36863 0,-0.19747 0,-0.51344 0,-0.52661 0.0263,-0.96106 0.0395,-0.44761 0.0922,-0.89523 0.0527,-0.44762 0.13166,-0.96106 0.079,-0.51344 0.15798,-1.19803 0.0658,-0.5661 0.11848,-1.2112 0.0527,-0.64509 0.0922,-1.25069 0.0527,-0.61876 0.0922,-1.1322 0.0527,-0.51345 0.13165,-0.81625 0.0395,-0.15798 0.18431,-0.36862 0.14482,-0.21064 0.32913,-0.39496 0.19748,-0.19747 0.40812,-0.32913 0.21065,-0.14481 0.36863,-0.14481 0.27647,0 0.44761,0.13165 0.18432,0.11848 0.28964,0.32913 0.11848,0.21064 0.15798,0.50027 0.0527,0.27647 0.0527,0.57927 0,0.31597 -0.0658,0.78991 -0.0527,0.47395 -0.14481,1.02689 -0.0922,0.55294 -0.21065,1.14537 -0.10532,0.59243 -0.21064,1.13221 -0.10532,0.53977 -0.19748,1.00055 -0.079,0.44762 -0.11848,0.73725 -0.11849,0.72409 -0.15798,1.15854 -0.0395,0.42128 -0.0395,0.68459 0.17115,-0.17115 0.43445,-0.51345 0.2633,-0.34229 0.57927,-0.80307 0.31596,-0.46078 0.65826,-1.01372 0.35546,-0.55294 0.71092,-1.13221 0.25014,-0.40812 0.55294,-0.92156 0.31596,-0.51344 0.64509,-1.02689 0.34229,-0.5266 0.67142,-0.98738 0.32913,-0.46079 0.6056,-0.77675 0.55294,-0.63193 1.14537,-0.96106 0.59244,-0.32913 1.23753,-0.32913 0.63193,0 1.09271,0.50028 0.47395,0.48711 0.63193,1.27702 0.079,0.36863 0.11849,0.85574 0.0527,0.47395 0.0922,1.00055 0.0395,0.52661 0.0658,1.05322 0.0395,0.52661 0.079,1.00055 0.0395,0.46078 0.10532,0.76358 0.079,0.3028 0.15798,0.48711 0.079,0.17115 0.14482,0.25014 0.0658,0.0658 0.10532,0.0658 0.25014,0 0.84257,-1.04005 0.3028,-0.52661 0.67143,-1.1717 0.36862,-0.6451 0.81624,-1.42184 0.44762,-0.76358 0.96106,-1.4745 0.51344,-0.71092 1.00055,-1.2507 0.50028,-0.55293 0.93473,-0.8689 0.43445,-0.32913 0.73725,-0.32913 0.19748,0 0.40812,0.0395 0.21065,0.0395 0.40812,0.11848 0.19748,0.079 0.3423,0.19748 0.15798,0.10532 0.23697,0.23698 0.19748,0.31596 0.27647,0.72408 0.0922,0.39496 0.13165,0.92156 0.0395,0.51345 0.0658,1.15854 0.0395,0.63193 0.11848,1.40868 0.18432,1.64564 0.56611,2.46188 0.39495,0.80308 1.11904,0.80308 0.27647,0 0.69775,-0.18431 0.42129,-0.18431 0.89524,-0.47395 0.47394,-0.3028 0.96105,-0.67142 0.48712,-0.38179 0.9084,-0.75042 0.42129,-0.36862 0.80308,-0.73725 0.39495,-0.38179 0.78991,-0.76358 0.39496,-0.39495 0.80308,-0.81624 0.42128,-0.42129 0.89523,-0.89523 0.15798,-0.15799 0.28963,-0.15799 0.19748,0 0.19748,0.3423 z"
           style="font-style:normal;font-weight:normal;font-family:'Segoe Script';-inkscape-font-specification:'Segoe Script, Normal'"
           id="path1439" />
        <path
           d="m 153.72521,116.68786 q 0,0.22381 -0.10532,0.46078 -0.0922,0.22381 -0.25014,0.44762 -0.15798,0.21064 -0.35546,0.40812 -0.18431,0.18431 -0.38179,0.3028 -0.46078,0.3028 -1.31652,0.53977 -0.84257,0.22381 -2.09326,0.22381 -1.00056,0 -2.01428,-0.25014 -1.01371,-0.26331 -1.94844,-0.85574 0.3028,0.46078 0.38179,0.88207 0.0922,0.42128 0.0922,1.00055 0,1.04005 -0.5266,2.21175 -0.51345,1.18487 -1.32969,2.19859 -0.81624,1.01372 -1.72464,1.68514 -0.51344,0.38179 -1.1322,0.67143 -0.6056,0.27647 -1.27703,0.46078 -0.67142,0.17115 -1.3955,0.2633 -0.72409,0.079 -1.46134,0.079 -0.51344,0 -1.00055,-0.32913 -0.48712,-0.32913 -0.86891,-0.80307 -0.38179,-0.47395 -0.61876,-1.01372 -0.22381,-0.53977 -0.22381,-0.97422 0,-1.06638 0.27647,-2.04061 0.28963,-0.98739 0.76358,-1.89579 0.48711,-0.92156 1.11904,-1.79046 0.63193,-0.88207 1.34285,-1.75097 0.39496,-0.48711 0.89523,-0.94789 0.51345,-0.47395 1.06638,-0.84258 0.55294,-0.36862 1.11904,-0.59243 0.56611,-0.23697 1.07955,-0.23697 0.42129,0 0.72408,0.11848 0.3028,0.11849 0.56611,0.3423 0.27647,0.21064 0.55294,0.53977 0.28963,0.32913 0.65825,0.73725 0.11849,0.11849 0.6451,0.35546 0.53977,0.22381 1.26386,0.44762 0.73725,0.21064 1.54032,0.38179 0.80308,0.15798 1.46134,0.15798 0.65826,0 1.2112,-0.0395 0.55293,-0.0527 1.06638,-0.15799 0.5266,-0.10532 1.04005,-0.28963 0.51344,-0.18431 1.10587,-0.44762 0.0527,0.19748 0.0527,0.3423 z m -9.83439,3.15964 q 0.0132,-0.36862 -0.0527,-0.8294 -0.0658,-0.47395 -0.23698,-0.88207 -0.15798,-0.42129 -0.43445,-0.68459 -0.2633,-0.2633 -0.65826,-0.21064 -0.60559,-0.23698 -1.00055,-0.50028 -0.39496,-0.2633 -0.6056,-0.2633 -0.15798,0 -0.34229,0.10532 -0.18432,0.0922 -0.38179,0.2633 -0.19748,0.17115 -0.40812,0.40812 -0.19748,0.22381 -0.39496,0.47395 -0.39496,0.51344 -0.73725,0.93473 -0.32913,0.42128 -0.63193,0.84257 -0.28963,0.40812 -0.5661,0.8689 -0.27647,0.44762 -0.55294,1.01372 -0.11849,0.23697 -0.21064,0.5661 -0.0922,0.32913 -0.15799,0.68459 -0.0658,0.3423 -0.10532,0.69776 -0.0263,0.34229 -0.0263,0.61876 0,0.17115 0.11849,0.42129 0.11849,0.23697 0.3028,0.47394 0.19748,0.22381 0.43445,0.38179 0.25014,0.15799 0.48711,0.15799 0.67143,0 1.14537,-0.0527 0.47395,-0.0658 0.8689,-0.21064 0.40813,-0.15798 0.81625,-0.42128 0.40812,-0.26331 0.94789,-0.68459 0.2633,-0.19748 0.51344,-0.46079 0.26331,-0.2633 0.51344,-0.55293 0.25014,-0.3028 0.47395,-0.6056 0.22381,-0.31597 0.42129,-0.61877 0.13165,-0.19747 0.2238,-0.48711 0.0922,-0.28963 0.14482,-0.57927 0.0527,-0.28963 0.0658,-0.5266 0.0263,-0.23698 0.0263,-0.3423 z"
           style="font-style:normal;font-weight:normal;font-family:'Segoe Script';-inkscape-font-specification:'Segoe Script, Normal'"
           id="path1441" />
        <path
           d="m 173.56514,118.30718 q 0,0.25013 -0.0922,0.51344 -0.079,0.25014 -0.21065,0.51344 -0.11848,0.25014 -0.27646,0.50028 -0.15799,0.23697 -0.3028,0.46078 -0.38179,0.59243 -0.89524,1.2112 -0.51344,0.60559 -1.10587,1.18486 -0.57927,0.57927 -1.19803,1.09271 -0.61877,0.51345 -1.2112,0.9084 -0.47395,0.31597 -0.9084,0.59243 -0.42128,0.27647 -0.85574,0.47395 -0.43445,0.19748 -0.90839,0.31597 -0.47395,0.11848 -1.04005,0.11848 -1.09271,0 -1.7773,-0.55294 -0.3423,-0.27646 -0.6056,-0.71092 -0.25014,-0.44761 -0.44762,-0.98738 -0.18431,-0.53978 -0.32913,-1.14538 -0.13165,-0.60559 -0.22381,-1.19803 -0.11848,-0.73725 -0.2238,-1.31652 -0.10532,-0.59243 -0.25014,-0.98739 -0.13165,-0.40812 -0.32913,-0.61876 -0.19748,-0.22381 -0.51344,-0.22381 -0.25014,0 -0.47395,0.0527 -0.22381,0.0527 -0.47395,0.21065 -0.23697,0.15798 -0.5266,0.44761 -0.28964,0.28964 -0.68459,0.76358 -0.38179,0.47395 -0.88207,1.15854 -0.50028,0.68459 -1.1717,1.63248 -0.32913,0.46078 -0.77675,1.01372 -0.44762,0.55294 -0.92156,1.05322 -0.46078,0.50027 -0.9084,0.88206 -0.44762,0.38179 -0.78991,0.48712 -1.15854,-0.25014 -1.15854,-2.88318 0,-0.69775 0.15799,-2.11959 0.079,-0.6451 0.18431,-1.34285 0.10532,-0.71092 0.2633,-1.40868 0.15798,-0.71092 0.35546,-1.36918 0.21064,-0.67142 0.48711,-1.23752 0.13166,-0.26331 0.27647,-0.40813 0.14482,-0.15798 0.28964,-0.2238 0.15798,-0.079 0.31596,-0.0922 0.17115,-0.0263 0.3423,-0.0263 0.21064,0 0.36862,0.28963 0.17115,0.28964 0.17115,0.80308 0,0.31596 -0.0527,0.59243 -0.0527,0.27647 -0.14482,0.56611 -0.0922,0.28963 -0.19748,0.63193 -0.10532,0.32913 -0.21064,0.76358 -0.079,0.35546 -0.18431,0.78991 -0.0922,0.43445 -0.18432,0.88206 -0.079,0.44762 -0.14481,0.88207 -0.0527,0.42129 -0.0527,0.76358 0,0.23698 0.079,0.48711 0.36862,-0.0395 1.21119,-1.10587 0.43446,-0.53977 0.9479,-1.18487 0.52661,-0.64509 1.1322,-1.42184 0.44762,-0.57927 0.88207,-1.07954 0.44762,-0.50028 0.92156,-0.8689 0.47395,-0.3818 1.00056,-0.59244 0.53977,-0.22381 1.18487,-0.22381 0.68458,0 1.1322,0.3028 0.46078,0.28964 0.73725,0.81624 0.27647,0.51345 0.42129,1.23753 0.15798,0.72409 0.25014,1.59299 0.079,0.73725 0.14481,1.46133 0.079,0.72409 0.28964,1.30336 0.21064,0.5661 0.6056,0.92156 0.39495,0.35546 1.1322,0.35546 0.5661,0 1.18487,-0.2633 0.61876,-0.26331 1.30335,-0.72409 0.68459,-0.47394 1.40868,-1.10587 0.73725,-0.63193 1.51399,-1.38235 0.3028,-0.28963 0.65826,-0.72408 0.36863,-0.44762 0.71092,-0.85574 0.35546,-0.40812 0.65826,-0.69775 0.3028,-0.28964 0.48711,-0.28964 0.079,0 0.25014,0.079 0.18431,0.079 0.18431,0.26331 z"
           style="font-style:normal;font-weight:normal;font-family:'Segoe Script';-inkscape-font-specification:'Segoe Script, Normal'"
           id="path1443" />
      </g>
    </g>
  </g>
</svg>
